<svg width="1200" height="675" viewBox="0 0 1200 675" fill="none" xmlns="http://www.w3.org/2000/svg" role="img" aria-label="TaiGer Consultancy — study-abroad application platform">
  <defs>
    <linearGradient id="bg" x1="0" y1="0" x2="1200" y2="675" gradientUnits="userSpaceOnUse">
      <stop offset="0" stop-color="#1f2633"/>
      <stop offset="1" stop-color="#2a3344"/>
    </linearGradient>
  </defs>

  <rect width="1200" height="675" fill="url(#bg)"/>

  <!-- soft brand glow behind the mark -->
  <circle cx="300" cy="337" r="220" fill="#FFBC03" opacity="0.06"/>

  <!-- official TaiGer mark (black / red / gold — German flag colors) -->
  <g transform="translate(110,188) scale(1.5)">
    <path d="M91.52 99.425C96.7083 96.1823 103.292 96.1823 108.48 99.425L145.791 122.745C155.818 129.011 155.818 143.614 145.791 149.88L108.48 173.2C103.292 176.443 96.7083 176.443 91.52 173.2L54.2088 149.88C44.1821 143.614 44.1821 129.011 54.2088 122.745L91.52 99.425Z" fill="#FFBC03"/>
    <path d="M91.52 76.925C96.7083 73.6823 103.292 73.6823 108.48 76.925L145.791 100.245C155.818 106.511 155.818 121.114 145.791 127.38L108.48 150.7C103.292 153.943 96.7083 153.943 91.52 150.7L54.2088 127.38C44.1821 121.114 44.1821 106.511 54.2088 100.245L91.52 76.925Z" fill="#F6414A"/>
    <path d="M91.52 26.3C96.7083 23.0573 103.292 23.0573 108.48 26.3L168.291 63.682C178.318 69.9487 178.318 84.5513 168.291 90.818L108.48 128.2C103.292 131.443 96.7083 131.443 91.52 128.2L31.7087 90.818C21.6821 84.5513 21.6821 69.9487 31.7088 63.682L91.52 26.3Z" fill="#282828"/>
  </g>

  <g font-family="'Segoe UI', system-ui, -apple-system, Helvetica, Arial, sans-serif">
    <text x="470" y="288" fill="#FFFFFF" font-size="66" font-weight="700" letter-spacing="-1">TaiGer Consultancy</text>
    <text x="472" y="346" fill="#FFBC03" font-size="34" font-weight="600">Study-abroad application platform</text>
    <rect x="472" y="392" width="540" height="1.5" fill="#FFFFFF" opacity="0.18"/>
    <text x="472" y="450" fill="#c7d0de" font-size="27" font-weight="400">React · TypeScript · Node.js · MongoDB · AWS</text>
  </g>
</svg>
